<svg id="Group_1753" data-name="Group 1753" xmlns="http://www.w3.org/2000/svg" xmlns:xlink="http://www.w3.org/1999/xlink" width="46.477" height="43.46" viewBox="0 0 46.477 43.46">
  <defs>
    <clipPath id="clip-path">
      <rect id="Rectangle_501" data-name="Rectangle 501" width="46.477" height="43.46" fill="#003974"/>
    </clipPath>
  </defs>
  <g id="Group_1752" data-name="Group 1752" clip-path="url(#clip-path)">
    <path id="Path_2875" data-name="Path 2875" d="M82.2,8.424c.11-2.086.2-4.173.335-6.258A2.189,2.189,0,0,1,85.363.075c1.372.316,2.747.626,4.1,1a15.809,15.809,0,0,0,8.5-.011c1.29-.354,2.6-.646,3.9-.96a2.246,2.246,0,0,1,3,2.279c.055,1.148.125,2.294.186,3.441q.233,4.381.463,8.761c.014.261.056.482-.314.594a50.554,50.554,0,0,1-7.556,1.974,27.978,27.978,0,0,1-11.928-.888c-1.116-.33-2.219-.709-3.339-1.025-.406-.114-.548-.27-.518-.714.135-2.032.228-4.067.336-6.1h0" transform="translate(-70.447 0)" fill="#003974"/>
    <path id="Path_2876" data-name="Path 2876" d="M10.284,87.806c-.054,1.018-.1,1.955-.156,2.891-.046.727.029.876.75,1.078,2.476.695,4.925,1.531,7.44,2.026a27.736,27.736,0,0,0,13.868-.95c1.177-.372,2.353-.748,3.537-1.1a.8.8,0,0,0,.651-.963c-.076-.952-.113-1.908-.172-2.967,1.144.31,2.238.566,3.305.9a15.7,15.7,0,0,1,5.665,2.807,5.1,5.1,0,0,1,.751.795,2.245,2.245,0,0,1,.012,2.934,7.257,7.257,0,0,1-2.559,2.024,26.9,26.9,0,0,1-7.445,2.491,66.08,66.08,0,0,1-21.208.67,37.33,37.33,0,0,1-10-2.459,21.914,21.914,0,0,1-2.882-1.564A5.053,5.053,0,0,1,.69,95.375,2.248,2.248,0,0,1,.7,92.126a8.968,8.968,0,0,1,1.89-1.54,25.024,25.024,0,0,1,7.7-2.78" transform="translate(0 -75.569)" fill="#003974"/>
    <path id="Path_2877" data-name="Path 2877" d="M185.43,220.815a6.81,6.81,0,1,1,6.767,6.848,6.8,6.8,0,0,1-6.767-6.848" transform="translate(-159.588 -184.203)" fill="#003974"/>
    <path id="Path_2878" data-name="Path 2878" d="M58.025,214a6.815,6.815,0,1,1-6.815,6.791A6.787,6.787,0,0,1,58.025,214" transform="translate(-44.073 -184.175)" fill="#003974"/>
    <path id="Path_2879" data-name="Path 2879" d="M140.8,218.454l-.739-.9c2.531-2.4,5.12-2.175,7.472-.016l-.745.909c-2.555-1.973-3.771-1.669-5.987.005" transform="translate(-120.542 -185.757)" fill="#003974"/>
  </g>
</svg>
