<svg id="Group_1750" data-name="Group 1750" xmlns="http://www.w3.org/2000/svg" xmlns:xlink="http://www.w3.org/1999/xlink" width="41.01" height="45.154" viewBox="0 0 41.01 45.154">
  <defs>
    <clipPath id="clip-path">
      <rect id="Rectangle_500" data-name="Rectangle 500" width="41.01" height="45.154" fill="#003974"/>
    </clipPath>
  </defs>
  <g id="Group_1749" data-name="Group 1749" clip-path="url(#clip-path)">
    <path id="Path_2872" data-name="Path 2872" d="M10.05,0h20.9c.034.025.064.064.1.073a3.6,3.6,0,0,1,2.717,2.444A7.806,7.806,0,0,0,38.565,7.3a3.574,3.574,0,0,1,2.442,3.51q.006,2.469,0,4.937a29.016,29.016,0,0,1-.893,7.416c-2.769,10.418-9,17.853-19.039,21.986H19.928c-.661-.271-1.339-.506-1.98-.819a31.4,31.4,0,0,1-14.1-13.467A30.263,30.263,0,0,1,.087,17.733C-.029,15.4.009,13.063,0,10.727A3.476,3.476,0,0,1,2.318,7.36a8.032,8.032,0,0,0,5-5.044A3.441,3.441,0,0,1,9.235.3C9.5.178,9.778.1,10.05,0m4.927,17.121c-.187.025-.317.045-.447.059a3.1,3.1,0,0,0-2.812,3c-.033,2.718-.06,5.439.01,8.155a5.831,5.831,0,0,0,5.6,5.525q3.173.063,6.349,0a5.829,5.829,0,0,0,5.59-5.491c.075-2.731.048-5.467.012-8.2a3.093,3.093,0,0,0-2.82-2.993c-.14-.015-.28-.04-.44-.063,0-1.335.021-2.628,0-3.92a5.521,5.521,0,0,0-11.04.187c-.01,1.233,0,2.467,0,3.738" transform="translate(0)" fill="#003974"/>
    <path id="Path_2873" data-name="Path 2873" d="M162.655,228.94c0-1.249,0-2.5,0-3.747,0-.608.148-.761.755-.761q5.4,0,10.8,0c.6,0,.751.157.752.765,0,2.424.011,4.849,0,7.273a3.252,3.252,0,0,1-3.421,3.4q-2.733.007-5.466,0a3.258,3.258,0,0,1-3.418-3.4c-.01-1.175,0-2.351,0-3.526m4.835,1.184c0,.425-.015.851,0,1.275a1.318,1.318,0,0,0,1.309,1.325,1.3,1.3,0,0,0,1.321-1.311q.04-1.252,0-2.506a1.317,1.317,0,0,0-1.307-1.328,1.332,1.332,0,0,0-1.325,1.358c-.015.4,0,.792,0,1.187" transform="translate(-148.307 -204.636)" fill="#003974"/>
    <path id="Path_2874" data-name="Path 2874" d="M205.536,125.667h-5.724c-.011-.131-.028-.245-.028-.358,0-1.16-.016-2.32.007-3.48a2.871,2.871,0,0,1,5.74-.007c.026,1.273.005,2.547.005,3.846" transform="translate(-182.16 -108.545)" fill="#003974"/>
  </g>
</svg>
